<svg xmlns="http://www.w3.org/2000/svg" width="21" height="20" viewBox="0 0 21 20">
  <defs>
    <style>
      .cls-1 {
        fill: #e84d37;
      }

      .cls-1, .cls-2 {
        fill-rule: evenodd;
      }

      .cls-2 {
        fill: #343434;
      }
    </style>
  </defs>
  <path id="Корзина_заполнена" data-name="Корзина заполнена" class="cls-1" d="M4.5,3.375H19.625L18.25,13.625,5.625,13.5Z"/>
  <path id="Корзина" class="cls-2" d="M20.576,4.46l-1.2,8.912a2.033,2.033,0,0,1-1.883,1.635H6.61a2.027,2.027,0,0,1-1.879-1.635L3.262,3.085a3.678,3.678,0,0,1-.137-1.055H1a1,1,0,0,1,0-2H5a1,1,0,0,1,1,1,0.99,0.99,0,0,1-.9.979H19.067C20.172,2.01,20.84,3.141,20.576,4.46ZM6.731,12.978l-1.313-9H18.624s-0.031.2-.031,0.2l-1.186,8.788c-0.008.011-.009,0.014,0,0.014H6.731Zm0.514,3.009a1.874,1.874,0,1,1-1.874,1.874A1.874,1.874,0,0,1,7.245,15.987Zm9,0a1.874,1.874,0,1,1-1.874,1.874A1.874,1.874,0,0,1,16.245,15.987Z"/>
</svg>
